<svg xmlns="http://www.w3.org/2000/svg" width="107.963" height="103.963" viewBox="0 0 107.963 103.963">
    <defs>
        <style>.a-red{fill:none;stroke:#d83824;stroke-width:3px;}</style>
    </defs>
    <g transform="translate(-386.537 -260.5)">
        <g transform="translate(5 -2)">
            <path class="a-red"
                  d="M2854.162-4156a2.346,2.346,0,0,1-2.344-2.343c0-.63,0-3.834-.007-3.977a2.108,2.108,0,0,0-1.047-1.793,22.356,22.356,0,0,1-6.532-2.707,2.106,2.106,0,0,0-2.014.525c-.107.094-2.373,2.362-2.818,2.808a2.347,2.347,0,0,1-3.314,0c-.022-.021-2.631-2.63-2.652-2.652a2.345,2.345,0,0,1,0-3.313c.252-.25.11-.1,2.813-2.812a2.133,2.133,0,0,0,.517-2.034l-.01-.04a22.353,22.353,0,0,1-2.611-6.3l-.018-.03a2.13,2.13,0,0,0-1.8-1.073c-3.826,0-3.623,0-3.978,0a2.345,2.345,0,0,1-2.343-2.343v-3.75a2.346,2.346,0,0,1,2.343-2.344c.63,0,3.835,0,3.978-.007a2.108,2.108,0,0,0,1.792-1.047,22.363,22.363,0,0,1,2.641-6.426l.01-.04a2.132,2.132,0,0,0-.517-2.034c-2.7-2.708-2.561-2.562-2.812-2.812a2.346,2.346,0,0,1,0-3.314c.022-.022,2.63-2.631,2.652-2.651a2.345,2.345,0,0,1,3.314,0c.445.445,2.711,2.712,2.818,2.807a2.107,2.107,0,0,0,2.011.526,22.375,22.375,0,0,1,6.535-2.708,2.108,2.108,0,0,0,1.047-1.792c.008-.143.007-3.348.007-3.978a2.346,2.346,0,0,1,2.344-2.343h3.75a2.345,2.345,0,0,1,2.343,2.343c0,.355,0,.152,0,3.978a2.13,2.13,0,0,0,1.073,1.8l.03.018a22.364,22.364,0,0,1,6.3,2.61l.042.011a2.128,2.128,0,0,0,2.034-.517c2.708-2.7,2.561-2.561,2.812-2.812a2.346,2.346,0,0,1,3.314,0l2.651,2.651a2.346,2.346,0,0,1,0,3.314c-.446.445-2.712,2.711-2.807,2.817a2.107,2.107,0,0,0-.526,2.015,22.366,22.366,0,0,1,2.706,6.53,2.1,2.1,0,0,0,1.793,1.049c.143.008,3.348.007,3.978.007a2.346,2.346,0,0,1,2.342,2.344v3.75a2.345,2.345,0,0,1-2.342,2.343c-.356,0-.153,0-3.978,0a2.133,2.133,0,0,0-1.8,1.073l-.018.03a22.369,22.369,0,0,1-2.677,6.408,2.105,2.105,0,0,0,.525,2.015c.1.106,2.362,2.372,2.807,2.817a2.346,2.346,0,0,1,0,3.314l-2.651,2.652a2.346,2.346,0,0,1-3.314,0c-.251-.251-.1-.11-2.812-2.812a2.13,2.13,0,0,0-2.034-.517l-.042.011a22.362,22.362,0,0,1-6.3,2.61l-.03.018a2.131,2.131,0,0,0-1.073,1.8c0,3.825,0,3.621,0,3.977a2.345,2.345,0,0,1-2.343,2.343Z"
                  transform="translate(-2398 4480)"/>
            <circle class="a-red" cx="12" cy="12" r="12" transform="translate(446 282)"/>
        </g>
        <g transform="translate(-98.074 184.576) rotate(-17)">
            <path class="a-red"
                  d="M2850.877-4163a2.072,2.072,0,0,1-2.071-2.069c0-.557,0-3.387-.006-3.513a1.86,1.86,0,0,0-.925-1.583,19.771,19.771,0,0,1-5.771-2.391,1.859,1.859,0,0,0-1.779.464c-.094.083-2.1,2.086-2.489,2.48a2.074,2.074,0,0,1-2.927,0l-2.342-2.343a2.072,2.072,0,0,1,0-2.927c.223-.222.1-.092,2.485-2.484a1.884,1.884,0,0,0,.456-1.8l-.009-.035a19.753,19.753,0,0,1-2.307-5.567l-.016-.026a1.88,1.88,0,0,0-1.593-.948c-3.379,0-3.2,0-3.514,0a2.072,2.072,0,0,1-2.07-2.07v-3.312a2.072,2.072,0,0,1,2.07-2.07c.556,0,3.387,0,3.514-.006a1.861,1.861,0,0,0,1.583-.925,19.753,19.753,0,0,1,2.333-5.676l.009-.035a1.883,1.883,0,0,0-.456-1.8c-2.387-2.392-2.262-2.263-2.484-2.484a2.073,2.073,0,0,1,0-2.928c.02-.02,2.323-2.324,2.342-2.342a2.071,2.071,0,0,1,2.927,0c.393.394,2.395,2.4,2.489,2.479a1.861,1.861,0,0,0,1.777.465,19.77,19.77,0,0,1,5.773-2.392,1.862,1.862,0,0,0,.925-1.583c.007-.126.006-2.957.006-3.514a2.072,2.072,0,0,1,2.071-2.069h3.313a2.072,2.072,0,0,1,2.07,2.069c0,.314,0,.134,0,3.514a1.882,1.882,0,0,0,.948,1.593l.027.016a19.764,19.764,0,0,1,5.564,2.305l.037.009a1.878,1.878,0,0,0,1.8-.457c2.392-2.386,2.262-2.262,2.484-2.484a2.071,2.071,0,0,1,2.927,0l2.342,2.342a2.072,2.072,0,0,1,0,2.928c-.393.394-2.4,2.395-2.48,2.488a1.862,1.862,0,0,0-.464,1.78,19.752,19.752,0,0,1,2.39,5.768,1.859,1.859,0,0,0,1.584.927c.126.007,2.957.006,3.514.006a2.072,2.072,0,0,1,2.069,2.07v3.313a2.072,2.072,0,0,1-2.069,2.07c-.314,0-.135,0-3.514,0a1.883,1.883,0,0,0-1.594.948l-.016.026a19.761,19.761,0,0,1-2.364,5.661,1.859,1.859,0,0,0,.464,1.78c.084.094,2.086,2.095,2.48,2.488a2.072,2.072,0,0,1,0,2.928l-2.342,2.343a2.072,2.072,0,0,1-2.927,0c-.222-.222-.092-.1-2.484-2.484a1.882,1.882,0,0,0-1.8-.457l-.037.009a19.749,19.749,0,0,1-5.564,2.305l-.027.016a1.884,1.884,0,0,0-.948,1.594c0,3.379,0,3.2,0,3.513a2.072,2.072,0,0,1-2.07,2.069Z"
                  transform="translate(-2398 4480)"/>
            <circle class="a-red" cx="10.5" cy="10.5" r="10.5" transform="translate(444 280)"/>
        </g>
    </g>
</svg>