<svg xmlns="http://www.w3.org/2000/svg" width="61.95" height="96.167" viewBox="0 0 61.95 96.167">
    <defs>
        <style>.a-red{fill:none;stroke:#d83824;stroke-width:3px;}</style>
    </defs>
    <path class="a-red"
          d="M28.714,97.075a14.9,14.9,0,0,1-2.329,0c-1.3-.474-2.513-3.207-2.329-4.538l6.987-36.3H10.083c-1.122,0-1.824-1.291-2.329-2.269s-.677-1.389,0-2.269L42.688,6.324c.826-1.076,3.4-2.8,4.658-2.269s.226.95,0,2.269L42.688,38.087h20.96c1.093,0,1.812,1.332,2.329,2.269a1.753,1.753,0,0,1,0,2.269L31.043,94.807C30.479,95.634,29.688,97.075,28.714,97.075Z"
          transform="translate(-5.886 -2.452)"/>
</svg>