<svg xmlns="http://www.w3.org/2000/svg" width="84.007" height="87.001" viewBox="0 0 84.007 87.001">
    <defs>
        <style>.a-red,.b,.b-stroke{fill:none;stroke:#d83824;stroke-width:3px;}.b-stroke{stroke-dasharray:5;}</style>
    </defs>
    <g transform="translate(-406.501 -264)">
        <path class="a-red"
              d="M-2407.505,4480c0,3.6,0,9.052.423,10.053a36.076,36.076,0,0,0,3.431,3.924c4.759,5.075,6.613,6.857,9,9.154,1.521,1.463,3.245,3.121,5.82,5.7l14.5,14.5c2.762,2.762,4.439,4.526,5.889,6.051,2.177,2.29,3.793,3.987,8.311,8.161,10.207,9.427,10.654,13.756,10.629,27.317"
              transform="translate(2838.51 -4214)"/>
        <path class="a-red"
              d="M-2349.5,4564.854c0-3.6,0-9.052-.423-10.053a36.076,36.076,0,0,0-3.431-3.924c-4.759-5.075-6.613-6.857-9-9.154-1.521-1.463-3.245-3.121-5.82-5.7l-14.5-14.5c-2.762-2.762-4.439-4.526-5.889-6.051-2.177-2.29-3.793-3.987-8.311-8.161-10.207-9.427-10.654-13.756-10.629-27.317"
              transform="translate(2815.506 -4214)"/>
        <path class="a-red"
              d="M-2388.565,4529.376c-2.177,2.29-3.793,3.987-8.311,8.161-10.207,9.427-10.654,13.756-10.629,27.317"
              transform="translate(2815.506 -4214)"/>
        <path class="a-red"
              d="M-2368.442,4515.478c2.177-2.29,3.793-3.987,8.311-8.161,10.207-9.427,10.654-13.756,10.629-27.317"
              transform="translate(2838.51 -4214)"/>
        <path class="a-red"
              d="M-2407.505,4564.854c0-3.6,0-9.052.423-10.053a36.076,36.076,0,0,1,3.431-3.924c4.759-5.075,6.613-6.857,9-9.154"
              transform="translate(2838.51 -4214)"/>
        <path class="a-red"
              d="M-2349.5,4480c0,3.6,0,9.052-.423,10.053a36.076,36.076,0,0,1-3.431,3.924c-4.759,5.075-6.613,6.857-9,9.154"
              transform="translate(2815.506 -4214)"/>
        <path class="b-stroke"
              d="M-2360,4567c0-13.9.448-14.641-7.25-21.75s-7.436-7.436-14.5-14.5l-14.5-14.5c-6.735-6.735-7.5-7.03-14.5-14.5s-7.25-7.333-7.25-21.75"
              transform="translate(2837.005 -4216)"/>
        <path class="b-stroke" d="M-2418,4567c0-13.9-.448-14.641,7.25-21.75,3.556-3.285,5.414-5.122,7.29-7.062"
              transform="translate(2837.005 -4216)"/>
        <path class="b-stroke" d="M-2376.842,4511.435c2.808-2.708,4.639-4.4,9.592-9.685,7.005-7.47,7.25-7.333,7.25-21.75"
              transform="translate(2837.005 -4216)"/>
    </g>
</svg>