<svg xmlns="http://www.w3.org/2000/svg" width="84" height="83.499" viewBox="0 0 84 83.499">
    <defs>
        <style>.a-red,.e{fill:none;}.a-red,.c{stroke:#d83824;stroke-width:3px;}.b{fill:#d83824;}.c{fill:#fff;}.d{stroke:none;}
        </style>
    </defs>
    <g transform="translate(-401.75 -271)">
        <g transform="translate(8.75 -12.201)">
            <path class="a-red" d="M.275-.066h22v11a10.915,10.915,0,0,1-11,11,10.915,10.915,0,0,1-11-11Z"
                  transform="translate(452.225 301.755)"/>
            <rect class="b" width="27" height="5" rx="2" transform="translate(450 299.188)"/>
            <path class="a-red" d="M3648-3686.508v-6a2,2,0,0,1,2-2,2,2,0,0,1,2,2v6Zm-10,0v-6a2,2,0,0,1,2-2,2,2,0,0,1,2,2v6Z"
                  transform="translate(-3181.499 3986.708)"/>
            <path class="a-red" d="M-3179,4022v43.512" transform="translate(3640 -3698.811)"/>
            <path class="a-red" d="M-3179,4022v43.512" transform="translate(3645 -3698.811)"/>
            <g class="c" transform="translate(461 315.188)">
                <circle class="d" cx="2.5" cy="2.5" r="2.5"/>
                <circle class="e" cx="2.5" cy="2.5" r="1"/>
            </g>
        </g>
        <path class="a-red" d="M6,0H42a6,6,0,0,1,6,6V42a6,6,0,0,1-6,6H6a6,6,0,0,1-6-6V6A6,6,0,0,1,6,0Z"
              transform="translate(403.25 272.5)"/>
        <circle class="a-red" cx="17" cy="17" r="17" transform="translate(410.25 279.5)"/>
        <path class="b"
              d="M3647-3702.5a3.5,3.5,0,0,1,3.5-3.5,3.5,3.5,0,0,1,3.5,3.5,3.5,3.5,0,0,1-3.5,3.5A3.5,3.5,0,0,1,3647-3702.5Zm-10,0a3.5,3.5,0,0,1,3.5-3.5,3.5,3.5,0,0,1,3.5,3.5,3.5,3.5,0,0,1-3.5,3.5A3.5,3.5,0,0,1,3637-3702.5Z"
              transform="translate(-3218.25 3999)"/>
    </g>
</svg>