<svg xmlns="http://www.w3.org/2000/svg" width="90.985" height="71.994" viewBox="0 0 90.985 71.994">
    <defs>
        <style>.a-red,.b{fill:none;stroke:#d83824;stroke-width:3px;}.a-red{stroke-linejoin:round;}</style>
    </defs>
    <g transform="translate(-870.5 -690)">
        <path class="a-red"
              d="M35.813,88.109h-15.7V101H11.156V88.109h-9.7V80.7h9.7V74.281h-9.7V66.922h9.7V32.75H36.328q10.969,0,17.391,5.578t6.422,15.094q0,9.984-6.164,15.4T36.469,74.281H20.109V80.7h15.7Zm-15.7-21.187H36.328q7.266,0,11.063-3.422t3.8-9.984a12.573,12.573,0,0,0-3.937-9.633q-3.937-3.68-10.641-3.727h-16.5Z"
              transform="translate(870.547 658.75)"/>
        <path class="b"
              d="M16.5,43.933a6.4,6.4,0,0,1-1,0,2.312,2.312,0,0,1-1-1.948l3-15.584h-9c-.482,0-.783-.554-1-.974s-.291-.6,0-.974l15-19.48c.354-.462,1.462-1.2,2-.974s.1.408,0,.974l-2,13.636h9c.469,0,.778.572,1,.974a.753.753,0,0,1,0,.974l-15,22.4C17.256,43.314,16.916,43.933,16.5,43.933Z"
              transform="translate(927.326 716.544)"/>
    </g>
</svg>