<svg xmlns="http://www.w3.org/2000/svg" width="83" height="85" viewBox="0 0 83 85">
    <defs>
        <style>.a-red{fill:none;stroke:#d83824;stroke-width:3px;}</style>
    </defs>
    <g transform="translate(-403.5 -269.5)">
        <line class="a-red" y2="72" transform="translate(420 282.5)"/>
        <line class="a-red" y2="72" transform="translate(461 282.5)"/>
        <line class="a-red" y2="72" transform="translate(428 282.5)"/>
        <line class="a-red" y2="72" transform="translate(469 282.5)"/>
        <g transform="translate(1.5 5)">
            <line class="a-red" x2="27" transform="translate(429.5 335.5)"/>
            <line class="a-red" x2="27" transform="translate(429.5 341.5)"/>
        </g>
        <g transform="translate(1.5 -11)">
            <line class="a-red" x2="27" transform="translate(429.5 335.5)"/>
            <line class="a-red" x2="27" transform="translate(429.5 341.5)"/>
        </g>
        <g transform="translate(1.5 -27)">
            <line class="a-red" x2="27" transform="translate(429.5 335.5)"/>
            <line class="a-red" x2="27" transform="translate(429.5 341.5)"/>
        </g>
        <g transform="translate(1.5 -43)">
            <line class="a-red" x2="27" transform="translate(429.5 335.5)"/>
            <line class="a-red" x2="27" transform="translate(429.5 341.5)"/>
        </g>
        <g transform="translate(42.5 -43)">
            <line class="a-red" x2="6.791" transform="translate(429.5 335.5)"/>
            <line class="a-red" y2="9" transform="translate(435.5 334)"/>
            <line class="a-red" x2="7" transform="translate(429.5 341.5)"/>
        </g>
        <g transform="translate(410 291)">
            <line class="a-red" x1="6.791" transform="translate(0.209 1.5)"/>
            <line class="a-red" y2="9" transform="translate(1)"/>
            <line class="a-red" x1="7" transform="translate(0 7.5)"/>
        </g>
        <g transform="translate(42.5 -27)">
            <line class="a-red" x2="6.791" transform="translate(429.5 335.5)"/>
            <line class="a-red" y2="9" transform="translate(435.5 334)"/>
            <line class="a-red" x2="7" transform="translate(429.5 341.5)"/>
        </g>
        <g transform="translate(410 307)">
            <line class="a-red" x1="6.791" transform="translate(0.209 1.5)"/>
            <line class="a-red" y2="9" transform="translate(1)"/>
            <line class="a-red" x1="7" transform="translate(0 7.5)"/>
        </g>
        <g transform="translate(42.5 -10)">
            <line class="a-red" x2="6.791" transform="translate(429.5 335.5)"/>
            <line class="a-red" y2="9" transform="translate(435.5 334)"/>
            <line class="a-red" x2="7" transform="translate(429.5 341.5)"/>
        </g>
        <g transform="translate(410 324)">
            <line class="a-red" x1="6.791" transform="translate(0.209 1.5)"/>
            <line class="a-red" y2="9" transform="translate(1)"/>
            <line class="a-red" x1="7" transform="translate(0 7.5)"/>
        </g>
        <g transform="translate(42.5 6)">
            <line class="a-red" x2="6.791" transform="translate(429.5 335.5)"/>
            <line class="a-red" y2="9" transform="translate(435.5 334)"/>
            <line class="a-red" x2="7" transform="translate(429.5 341.5)"/>
        </g>
        <g transform="translate(410 340)">
            <line class="a-red" x1="6.791" transform="translate(0.209 1.5)"/>
            <line class="a-red" y2="9" transform="translate(1)"/>
            <line class="a-red" x1="7" transform="translate(0 7.5)"/>
        </g>
        <path class="a-red" d="M2,0H78c1.1,0,2,.6,2,1.333V6.667C80,7.4,79.1,8,78,8H2C.9,8,0,7.4,0,6.667V1.333C0,.6.9,0,2,0Z"
              transform="translate(405 271)"/>
    </g>
</svg>