<svg xmlns="http://www.w3.org/2000/svg" width="120.999" height="96" viewBox="0 0 120.999 96">
    <defs>
        <style>
            .cargo-a,.cargo-c{fill:none;}.cargo-b{fill:#dddd8b;}.cargo-c,.cargo-d{stroke:#dddd8b;stroke-width:3px;}.cargo-d{fill:rgba(0,0,0,0);stroke-linecap:round;stroke-linejoin:round;}.cargo-e,.cargo-f{stroke:none;}.cargo-f{fill:#dddd8b;}
        </style>
    </defs>
    <g transform="translate(-1431.5 -11772.5)">
        <g class="cargo-a" transform="translate(1704.572 4731.613)">
            <path class="cargo-e" d="M-237.76,7059.507l5.561-7.715,29.241,32.268-3.479,6.317-9.621-5.664Z"/>
            <path class="cargo-f"
                  d="M -231.9324645996094 7056.55322265625 L -233.9427490234375 7059.34228515625 L -214.1083831787109 7082.37939453125 L -207.5756225585938 7086.2255859375 L -206.6184387207031 7084.48779296875 L -231.9324645996094 7056.55322265625 M -232.1985626220703 7051.7919921875 L -202.957763671875 7084.0595703125 L -206.4372406005859 7090.376953125 L -216.0580596923828 7084.712890625 L -237.7596435546875 7059.5068359375 L -232.1985626220703 7051.7919921875 Z"/>
        </g>
        <g class="cargo-a" transform="translate(1757.809 4658.608)">
            <path class="cargo-e"
                  d="M-292.629,7136.426l16.529,18.886.4,4.639L-293.955,7173l-5.754,9.824-1.543-1.984,3.522-18.946Z"/>
            <path class="cargo-f"
                  d="M -290.881591796875 7142.97705078125 L -294.7848510742188 7162.4580078125 L -296.4237365722656 7171.27392578125 L -296.22021484375 7170.92626953125 L -295.6991577148438 7170.55419921875 L -278.8323669433594 7158.50439453125 L -279.0027770996094 7156.54931640625 L -290.881591796875 7142.97705078125 M -292.6286010742188 7136.42578125 L -276.0992736816406 7155.3115234375 L -275.6950073242188 7159.9501953125 L -293.9552612304688 7172.9951171875 L -299.709716796875 7182.8193359375 L -301.2525634765625 7180.8349609375 L -297.73046875 7161.888671875 L -292.6286010742188 7136.42578125 Z"/>
        </g>
        <g class="cargo-a" transform="translate(1728.644 4505.003)">
            <path class="cargo-e" d="M-267.525,7339.032l24.363,7.043L-244.2,7318.2l-1.744-.982-17.2,13.4Z"/>
            <path class="cargo-f"
                  d="M -246.3137359619141 7342.04052734375 L -247.0615386962891 7321.89404296875 L -260.779296875 7332.5849609375 L -263.1694641113281 7337.16796875 L -246.3137359619141 7342.04052734375 M -243.1619262695312 7346.07470703125 L -267.5249633789062 7339.03173828125 L -263.1377563476562 7330.61962890625 L -245.94091796875 7317.21728515625 L -244.1965942382812 7318.19970703125 L -243.1619262695312 7346.07470703125 Z"/>
        </g>
        <path class="cargo-b" d="M-32.249,7333.452l.662,29.94,13.1,3.874-3.754-10.134-2.454-16.862Z"
              transform="translate(1521.171 4488.354)"/>
        <path class="cargo-b"
              d="M60.455,7433.708l2.459,11.634,3.7,9.032,2.488,2.864,8.787,1.916,1.967-8.99-7.67-4.822-5.571-6.257-2.883-4.79Z"
              transform="translate(1446.616 4399.231)"/>
        <path class="cargo-c"
              d="M-570.052,12695.463a247.159,247.159,0,0,0,29.1,30.166c16.011,13.657,26.962,16.348,26.962,16.348"
              transform="translate(2048.091 -916.209)"/>
        <path class="cargo-c" d="M491.8,13098.932s4.386,8.659,5.418,17.1-5.718,2.8-4.583,13.562,6.4,21.084,6.4,21.084"
              transform="translate(1009.758 -1294.494)"/>
        <path class="cargo-d"
              d="M110.339,85.308v0Zm-96.678,0v0Zm96.678,0h0ZM13.661,85.308ZM3,85.308H3ZM13.661,85.308Zm96.678-71.617h0Zm0-10.692V3ZM3,13.692H3ZM13.661,3V3Z"
              transform="translate(1430 11771)"/>
    </g>
</svg>