<svg xmlns="http://www.w3.org/2000/svg" width="39.083" height="60.089" viewBox="0 0 39.083 60.089"><defs><style>.a{fill:none;stroke:#dddd8b;stroke-width:3px;}</style></defs><path class="a" d="M20.405,60.931a9.119,9.119,0,0,1-1.425,0,3.3,3.3,0,0,1-1.425-2.776l4.275-22.21H9.006c-.687,0-1.116-.79-1.425-1.388s-.414-.85,0-1.388L28.955,5.405c.505-.658,2.083-1.714,2.85-1.388s.138.581,0,1.388l-2.85,19.434H41.78c.669,0,1.109.815,1.425,1.388a1.073,1.073,0,0,1,0,1.388L21.83,59.543C21.485,60.049,21,60.931,20.405,60.931Z" transform="translate(-5.848 -2.367)"/></svg>