<svg xmlns="http://www.w3.org/2000/svg" width="18.355" height="32.338" viewBox="0 0 18.355 32.338"><defs><style>.a{fill:#fff;}</style></defs><path class="a" d="M11.837,32.338H6.659A1.57,1.57,0,0,1,5.09,30.769V19.089H2.069A1.571,1.571,0,0,1,.5,17.52V12.515a1.57,1.57,0,0,1,1.569-1.569H5.09V8.44A8.534,8.534,0,0,1,7.347,2.326,8.128,8.128,0,0,1,13.339,0l3.95.006a1.571,1.571,0,0,1,1.566,1.569V6.222a1.57,1.57,0,0,1-1.568,1.569H14.627c-.811,0-1.017.163-1.062.212-.073.083-.159.316-.159.961v1.98h3.68a1.594,1.594,0,0,1,.776.2,1.574,1.574,0,0,1,.807,1.372l0,5.005A1.57,1.57,0,0,1,17.1,19.088H13.406V30.769A1.571,1.571,0,0,1,11.837,32.338Z" transform="translate(-0.5)"/></svg>