<svg xmlns="http://www.w3.org/2000/svg" width="120.999" height="96" viewBox="0 0 120.999 96">
    <defs>
        <style>
            .first-a{fill:#dddd8b;}.first-b,.first-c{fill:none;}.first-c,.first-d{stroke:#dddd8b;stroke-width:3px;}.first-d{fill:rgba(0,0,0,0);stroke-linecap:round;stroke-linejoin:round;}.first-e,.first-f{stroke:none;}.first-f{fill:#dddd8b;}
        </style>
    </defs>
    <g transform="translate(-899.5 -11772.5)">
        <path class="first-a" d="M-237.76,7059.507l5.561-7.715,29.241,32.268-3.479,6.317-9.621-5.664Z"
              transform="translate(1172.572 4731.613)"/>
        <g class="first-b" transform="translate(1225.809 4658.608)">
            <path class="first-e"
                  d="M-292.629,7136.426l16.529,18.886.4,4.639L-293.955,7173l-5.754,9.824-1.543-1.984,3.522-18.946Z"/>
            <path class="first-f"
                  d="M -290.881591796875 7142.97705078125 L -294.7848510742188 7162.4580078125 L -296.4237365722656 7171.27392578125 L -296.22021484375 7170.92626953125 L -295.6991577148438 7170.55419921875 L -278.8323669433594 7158.50439453125 L -279.0027770996094 7156.54931640625 L -290.881591796875 7142.97705078125 M -292.6286010742188 7136.42578125 L -276.0992736816406 7155.3115234375 L -275.6950073242188 7159.9501953125 L -293.9552612304688 7172.9951171875 L -299.709716796875 7182.8193359375 L -301.2525634765625 7180.8349609375 L -297.73046875 7161.888671875 L -292.6286010742188 7136.42578125 Z"/>
        </g>
        <g class="first-b" transform="translate(1196.644 4505.003)">
            <path class="first-e" d="M-267.525,7339.032l24.363,7.043L-244.2,7318.2l-1.744-.982-17.2,13.4Z"/>
            <path class="first-f"
                  d="M -246.3137359619141 7342.04052734375 L -247.0615386962891 7321.89404296875 L -260.779296875 7332.5849609375 L -263.1694641113281 7337.16796875 L -246.3137359619141 7342.04052734375 M -243.1619262695312 7346.07470703125 L -267.5249633789062 7339.03173828125 L -263.1377563476562 7330.61962890625 L -245.94091796875 7317.21728515625 L -244.1965942382812 7318.19970703125 L -243.1619262695312 7346.07470703125 Z"/>
        </g>
        <g class="first-b" transform="translate(989.171 4488.354)">
            <path class="first-e" d="M-32.249,7333.452l.662,29.94,13.1,3.874-3.754-10.134-2.454-16.862Z"/>
            <path class="first-f"
                  d="M -29.09565925598145 7340.337890625 L -28.6361198425293 7361.13671875 L -23.37878608703613 7362.69091796875 L -25.16168785095215 7357.87744140625 L -27.5055103302002 7341.7724609375 L -29.09565925598145 7340.337890625 M -32.24852752685547 7333.4521484375 L -24.69257926940918 7340.27001953125 L -22.23854827880859 7357.13232421875 L -18.48488998413086 7367.26611328125 L -31.58700942993164 7363.392578125 L -32.24852752685547 7333.4521484375 Z"/>
        </g>
        <g class="first-b" transform="translate(914.616 4399.231)">
            <path class="first-e"
                  d="M60.455,7433.708l2.459,11.634,3.7,9.032,2.488,2.864,8.787,1.916,1.967-8.99-7.67-4.822-5.571-6.257-2.883-4.79Z"/>
            <path class="first-f"
                  d="M 65.29993438720703 7442.11962890625 L 65.79381561279297 7444.45556640625 L 69.20352172851562 7452.77978515625 L 70.71453857421875 7454.51953125 L 75.59926605224609 7455.58447265625 L 76.47477722167969 7451.58203125 L 70.22874450683594 7447.65478515625 L 65.29993438720703 7442.11962890625 M 60.455322265625 7433.7080078125 L 63.73129272460938 7434.294921875 L 66.61466217041016 7439.0849609375 L 72.18605041503906 7445.341796875 L 79.85586547851562 7450.1640625 L 77.88931274414062 7459.154296875 L 69.10257720947266 7457.23828125 L 66.61466217041016 7454.3740234375 L 62.91481018066406 7445.341796875 L 60.455322265625 7433.7080078125 Z"/>
        </g>
        <path class="first-c"
              d="M-570.052,12695.463a247.159,247.159,0,0,0,29.1,30.166c16.011,13.657,26.962,16.348,26.962,16.348"
              transform="translate(1516.091 -916.209)"/>
        <path class="first-c" d="M491.8,13098.932s4.386,8.659,5.418,17.1-5.718,2.8-4.583,13.562,6.4,21.084,6.4,21.084"
              transform="translate(477.758 -1294.494)"/>
        <path class="first-d"
              d="M110.339,85.308v0Zm-96.678,0v0Zm96.678,0h0ZM13.661,85.308ZM3,85.308H3ZM13.661,85.308Zm96.678-71.617h0Zm0-10.692V3ZM3,13.692H3ZM13.661,3V3Z"
              transform="translate(898 11771)"/>
    </g>
</svg>