<svg xmlns="http://www.w3.org/2000/svg" width="57.033" height="57" viewBox="0 0 57.033 57"><defs><style>.a{fill:#dddd8b;}</style></defs><g transform="translate(-18 -71.996)"><path class="a" d="M194.681,109.34a13.34,13.34,0,1,0-13.34,13.34A13.34,13.34,0,0,0,194.681,109.34Zm-24.255,0a10.915,10.915,0,1,1,10.915,10.915,10.915,10.915,0,0,1-10.915-10.915Z" transform="translate(-134.824 -20.365)"/><path class="a" d="M239.274,136.489a3.644,3.644,0,0,0-2.444-3.436,1.221,1.221,0,0,0,.018-.2v-3.638a1.213,1.213,0,1,0-2.426,0v3.638a1.219,1.219,0,0,0,.018.2,3.638,3.638,0,1,0,4.833,3.436Zm-4.851,0a1.213,1.213,0,1,1,1.213,1.213A1.213,1.213,0,0,1,234.423,136.489Z" transform="translate(-189.119 -47.514)"/><path class="a" d="M73.82,115.657H67.133v-2.426a1.213,1.213,0,0,0-1.213-1.213H58.644v-2.426a1.213,1.213,0,0,0-1.213-1.213H52.58v-3.546a16.979,16.979,0,1,0-12.128,0v3.546H35.6a1.213,1.213,0,0,0-1.213,1.213v2.426H27.112a1.213,1.213,0,0,0-1.213,1.213v2.426H19.213A1.213,1.213,0,0,0,18,116.869v7.277a1.213,1.213,0,0,0,1.213,1.213H25.9v2.426A1.213,1.213,0,0,0,27.112,129H65.921a1.213,1.213,0,0,0,1.213-1.213v-2.426H73.82a1.213,1.213,0,0,0,1.213-1.213v-7.277A1.213,1.213,0,0,0,73.82,115.657ZM31.963,88.976a14.553,14.553,0,1,1,14.553,14.553A14.553,14.553,0,0,1,31.963,88.976ZM42.878,105.56a17.009,17.009,0,0,0,7.277,0v2.82H42.878Zm-6.064,5.245h19.4v1.213h-19.4ZM20.426,122.933v-4.851H25.9v4.851Zm44.282,3.638H28.325V114.444H64.708Zm7.9-3.638H67.133v-4.851h5.474Z" transform="translate(0)"/><path class="a" d="M152.489,408h-7.277a1.213,1.213,0,0,0,0,2.426h7.277a1.213,1.213,0,0,0,0-2.426Z" transform="translate(-114.462 -285.067)"/><path class="a" d="M218.426,408h-1.213a1.213,1.213,0,1,0,0,2.426h1.213a1.213,1.213,0,0,0,0-2.426Z" transform="translate(-175.547 -285.067)"/></g></svg>