<svg xmlns="http://www.w3.org/2000/svg" width="32" height="32" viewBox="0 0 32 32">
    <defs>
        <style>.icon8-a,.icon8-b{fill:none;}.icon8-a{stroke:#dddd8b;stroke-width:3px;}</style>
    </defs>
    <g transform="translate(-919 -123)">
        <path class="icon8-a"
              d="M13.511,30.94a4.319,4.319,0,0,1-.675,0,1.561,1.561,0,0,1-.675-1.315l2.025-10.519H8.112c-.325,0-.529-.374-.675-.657s-.2-.4,0-.657L17.561,4.642c.239-.312.987-.812,1.35-.657s.065.275,0,.657l-1.35,9.2h6.074c.317,0,.525.386.675.657a.508.508,0,0,1,0,.657L14.186,30.283C14.023,30.523,13.794,30.94,13.511,30.94Z"
              transform="translate(919.192 121.544)"/>
        <rect class="icon8-b" width="32" height="32" transform="translate(919 123)"/>
    </g>
</svg>