<svg xmlns="http://www.w3.org/2000/svg" width="32" height="32" viewBox="0 0 32 32">
    <defs>
        <style>.icon2-a,.icon2-b{fill:none;}.icon2-c,.icon2-d{stroke:none;}.icon2-d{fill:#dddd8b;}</style>
    </defs>
    <g transform="translate(-856 -215)">
        <rect class="icon2-a" width="32" height="32" transform="translate(856 215)"/>
        <g class="icon2-b" transform="translate(-2785.232 3912)">
            <path class="icon2-c"
                  d="M3656.854-3666c-1.434,0-6.747-2.991-8.821-8.891a62.693,62.693,0,0,1-2.8-15.112,8,8,0,0,0,7.187-5h9.162a8.008,8.008,0,0,0,7.136,5,63.078,63.078,0,0,1-2.953,15.113C3663.631-3668.992,3658.289-3666,3656.854-3666Z"/>
            <path class="icon2-d"
                  d="M 3656.85595703125 -3669.07470703125 C 3657.380126953125 -3669.29638671875 3658.3857421875 -3669.863525390625 3659.47265625 -3670.8369140625 C 3660.575927734375 -3671.8251953125 3662.07373046875 -3673.5078125 3662.94287109375 -3675.912109375 C 3664.276123046875 -3679.6005859375 3665.030517578125 -3683.957275390625 3665.45654296875 -3687.586181640625 C 3663.135498046875 -3688.376953125 3661.1279296875 -3689.9287109375 3659.778564453125 -3692 L 3654.222412109375 -3692 C 3652.858154296875 -3689.903564453125 3650.82177734375 -3688.34130859375 3648.468017578125 -3687.5595703125 C 3648.857177734375 -3683.930908203125 3649.56787109375 -3679.57373046875 3650.8642578125 -3675.885986328125 C 3651.7060546875 -3673.490966796875 3653.1806640625 -3671.814697265625 3654.269775390625 -3670.830322265625 C 3655.3408203125 -3669.86181640625 3656.3359375 -3669.29638671875 3656.85595703125 -3669.07470703125 M 3656.8544921875 -3666 C 3655.420166015625 -3666 3650.107666015625 -3668.991455078125 3648.033935546875 -3674.89111328125 C 3646.290283203125 -3679.8515625 3645.548095703125 -3685.84716796875 3645.232421875 -3690.00341796875 C 3648.406005859375 -3690.09375 3651.2265625 -3692.0546875 3652.4189453125 -3695 L 3661.581298828125 -3695 C 3662.765625 -3692.074951171875 3665.566162109375 -3690.114501953125 3668.717041015625 -3690.0048828125 C 3668.359375 -3685.84619140625 3667.555908203125 -3679.849365234375 3665.76416015625 -3674.892333984375 C 3663.63134765625 -3668.99169921875 3658.288818359375 -3666 3656.8544921875 -3666 Z"/>
        </g>
    </g>
</svg>