<svg xmlns="http://www.w3.org/2000/svg" width="28.415" height="28.415" viewBox="0 0 28.415 28.415"><defs><style>.a{fill:#fff;}</style></defs><path class="a" d="M14.208,28.415c-3.8,0-4.311-.016-5.857-.083a10.517,10.517,0,0,1-3.448-.66,7.068,7.068,0,0,1-2.516-1.637A7,7,0,0,1,.744,23.514a10.447,10.447,0,0,1-.661-3.446C.016,18.52,0,18.01,0,14.211c0-3.837.017-4.342.089-5.863A10.505,10.505,0,0,1,.749,4.9,7.036,7.036,0,0,1,2.387,2.386,6.938,6.938,0,0,1,4.908.744,10.432,10.432,0,0,1,8.356.083C9.9.016,10.412,0,14.214,0c3.82,0,4.328.017,5.863.088a10.532,10.532,0,0,1,3.448.66,7.034,7.034,0,0,1,2.515,1.637,6.908,6.908,0,0,1,1.643,2.521,10.4,10.4,0,0,1,.66,3.448c.066,1.505.073,2,.073,5.856,0,3.805-.016,4.314-.083,5.856a10.5,10.5,0,0,1-.66,3.446,7.289,7.289,0,0,1-4.159,4.158,10.485,10.485,0,0,1-3.447.66C18.518,28.4,18.008,28.415,14.208,28.415Zm.005-21.5a7.3,7.3,0,1,0,7.3,7.3A7.308,7.308,0,0,0,14.214,6.911ZM21.8,4.918a1.7,1.7,0,1,0,1.7,1.7A1.707,1.707,0,0,0,21.8,4.918Zm-7.59,14.028a4.735,4.735,0,1,1,4.735-4.736A4.742,4.742,0,0,1,14.214,18.945Z"/></svg>