<svg xmlns="http://www.w3.org/2000/svg" width="28.416" height="28.415" viewBox="0 0 28.416 28.415"><defs><style>.a{fill:#fff;}</style></defs><path class="a" d="M982.864,718.415H961.552A3.556,3.556,0,0,1,958,714.863V693.552A3.556,3.556,0,0,1,961.552,690h21.312a3.556,3.556,0,0,1,3.552,3.552v21.311A3.556,3.556,0,0,1,982.864,718.415Zm-15.3-14.227a1.187,1.187,0,0,0-.991.532,1.241,1.241,0,0,0,.172,1.767,4.176,4.176,0,0,0,.343.285l.02.015.049.039.051.04a6.8,6.8,0,0,0,2.048,1.089,11.034,11.034,0,0,0,2.329.474c-.052.054-.1.1-.13.141l-.009.006c-.048.053-.089.1-.131.142l-1.112,1.114-.01.01-.017.016-.05.051c-.833.836-1.621,1.627-2.415,2.418a1.324,1.324,0,0,0-.445.889,1.436,1.436,0,0,0,.829,1.322,1.275,1.275,0,0,0,.552.134,1.227,1.227,0,0,0,.87-.389c1.174-1.16,2.039-2.029,2.8-2.818.125-.128.217-.2.317-.2s.176.056.3.188c.558.583,1.138,1.161,1.7,1.72l.158.158c.229.226.57.565.894.893a1.326,1.326,0,0,0,.856.437c.027,0,.053,0,.081,0a1.446,1.446,0,0,0,1.27-.846,1.21,1.21,0,0,0-.273-1.42c-.534-.541-1.079-1.087-1.606-1.615l-.013-.013-.644-.646-.1-.1-.408-.408-.028-.028-.028-.029c-.271-.271-.548-.548-.82-.822-.043-.043-.083-.086-.127-.134l-.071-.077-.085-.093a10.618,10.618,0,0,0,2.627-.589,6.384,6.384,0,0,0,2.314-1.5,1.086,1.086,0,0,0,.331-.726,1.466,1.466,0,0,0-.247-.824,1.209,1.209,0,0,0-1.044-.6,1.324,1.324,0,0,0-.348.046,2.157,2.157,0,0,0-.775.4,6.966,6.966,0,0,1-3.906,1.168,7.206,7.206,0,0,1-2.11-.312,6.955,6.955,0,0,1-1.94-.927,2.616,2.616,0,0,0-.362-.215A1.551,1.551,0,0,0,967.568,704.187Zm5.066-10.635a5.339,5.339,0,0,0-3.8,9.106,5.36,5.36,0,0,0,1.688,1.154,5.213,5.213,0,0,0,2.061.427h.019a5.351,5.351,0,0,0,3.776-1.544,5.246,5.246,0,0,0,1.581-3.731,5.407,5.407,0,0,0-1.564-3.848,5.272,5.272,0,0,0-3.749-1.565Zm.009,7.96h-.012a2.6,2.6,0,1,1,1.855-.766A2.584,2.584,0,0,1,972.643,701.512Z" transform="translate(-958 -690)"/></svg>