<svg xmlns="http://www.w3.org/2000/svg" width="34.805" height="22.942" viewBox="0 0 34.805 22.942"><defs><style>.a{fill:#ea2727;}</style></defs><path class="a" d="M23.335,34.163h15.93a3.894,3.894,0,0,0,2.188-.449,1.5,1.5,0,0,0,.617-1.29,5.913,5.913,0,0,0-1.318-3.436A10.717,10.717,0,0,0,37.036,25.9a11.927,11.927,0,0,0-5.679-1.276A12.159,12.159,0,0,0,25.621,25.9a10.658,10.658,0,0,0-3.744,3.085,5.913,5.913,0,0,0-1.318,3.436,1.5,1.5,0,0,0,.617,1.29A3.827,3.827,0,0,0,23.335,34.163Zm8.021-11.779A4.657,4.657,0,0,0,34.9,20.743a5.782,5.782,0,0,0,1.5-4.053,5.411,5.411,0,0,0-1.5-3.912,4.858,4.858,0,0,0-7.166.042,5.458,5.458,0,0,0-1.514,3.9,5.714,5.714,0,0,0,1.514,4.025A4.757,4.757,0,0,0,31.356,22.384ZM9.565,34.163h9.62a3.154,3.154,0,0,1-.435-2.412,8.291,8.291,0,0,1,1.15-2.959A9.565,9.565,0,0,1,22.213,26.2a9.962,9.962,0,0,0-5.581-1.6,9.812,9.812,0,0,0-4.964,1.206,9.3,9.3,0,0,0-3.253,2.973,6.438,6.438,0,0,0-1.15,3.534,1.773,1.773,0,0,0,.519,1.374A2.622,2.622,0,0,0,9.565,34.163Zm7.068-11.527a4.162,4.162,0,0,0,3.127-1.416,4.9,4.9,0,0,0,1.332-3.492,4.722,4.722,0,0,0-1.332-3.422,4.231,4.231,0,0,0-6.254.014,4.735,4.735,0,0,0-1.332,3.408,4.932,4.932,0,0,0,1.318,3.492A4.147,4.147,0,0,0,16.632,22.636Z" transform="translate(-7.265 -11.221)"/></svg>