<svg xmlns="http://www.w3.org/2000/svg" width="57" height="47.466" viewBox="0 0 57 47.466"><defs><style>.a{fill:#dddd8b;}</style></defs><path class="a" d="M25.027,32.769a8.477,8.477,0,0,0-10.942,0,4.992,4.992,0,0,1-3.472,1.338,4.992,4.992,0,0,1-3.472-1.338,8.24,8.24,0,0,0-5.471-2,1.67,1.67,0,0,0,0,3.34,4.992,4.992,0,0,1,3.472,1.338,8.241,8.241,0,0,0,5.471,2,8.24,8.24,0,0,0,5.471-2,5.174,5.174,0,0,1,6.945,0,8.24,8.24,0,0,0,5.471,2,9.241,9.241,0,0,0,1.432-.107c.042,0,.084.006.127.006a1.66,1.66,0,0,0,.821-.217,9.255,9.255,0,0,0,3.091-1.684,5.175,5.175,0,0,1,6.945,0,8.31,8.31,0,0,0,4.754,1.976,1.681,1.681,0,0,0,.309.03c.048,0,.1,0,.143-.007q.13,0,.265,0a8.241,8.241,0,0,0,5.471-2,4.992,4.992,0,0,1,3.472-1.338,1.67,1.67,0,0,0,0-3.34,8.241,8.241,0,0,0-5.471,2,5.825,5.825,0,0,1-2.21,1.2V30.433A26.385,26.385,0,0,0,21.264,4.048H19.311V1.67A1.67,1.67,0,0,0,17.641,0H13.289A5.018,5.018,0,0,0,8.5,3.538H1.709a1.67,1.67,0,0,0,0,3.34H8.28V17.691H1.709a1.67,1.67,0,0,0,0,3.34H8.5a5.019,5.019,0,0,0,4.789,3.539h4.352a1.67,1.67,0,0,0,1.67-1.67V20.328a11.663,11.663,0,0,1,5.342,2.321,10.167,10.167,0,0,1,3.735,8.4V34.1A5.008,5.008,0,0,1,25.027,32.769ZM15.971,21.23H13.289a1.672,1.672,0,0,1-1.67-1.67V5.01a1.672,1.672,0,0,1,1.67-1.67h2.682Zm10.764-1.192a15.141,15.141,0,0,0-7.424-3.082V7.388h1.953A23.071,23.071,0,0,1,44.309,30.433V33.68a8.616,8.616,0,0,1-1.395-.911,8.476,8.476,0,0,0-10.942,0l-.243.18v-1.9A13.449,13.449,0,0,0,26.735,20.038Zm0,0"/><path class="a" d="M55.33,366.359a8.244,8.244,0,0,0-5.471,2,5.175,5.175,0,0,1-6.945,0,8.476,8.476,0,0,0-10.942,0,5.175,5.175,0,0,1-6.945,0,8.476,8.476,0,0,0-10.942,0,4.992,4.992,0,0,1-3.472,1.338,4.992,4.992,0,0,1-3.472-1.338,8.24,8.24,0,0,0-5.471-2,1.67,1.67,0,0,0,0,3.34,4.992,4.992,0,0,1,3.472,1.338,8.241,8.241,0,0,0,5.471,2,8.24,8.24,0,0,0,5.471-2,5.174,5.174,0,0,1,6.945,0,8.477,8.477,0,0,0,10.942,0,5.175,5.175,0,0,1,6.945,0,8.478,8.478,0,0,0,10.942,0A4.992,4.992,0,0,1,55.33,369.7a1.67,1.67,0,0,0,0-3.34Zm0,0" transform="translate(0 -325.573)"/></svg>