<svg xmlns="http://www.w3.org/2000/svg" width="95.665" height="95.666" viewBox="0 0 95.665 95.666"><defs><style>.a{fill:#191912;}.a,.b{fill-rule:evenodd;}.b{fill:none;}.c{fill:#fff;}</style></defs><path class="a" d="M16311.482,6257.13h-36.328l-25.682,25.684v36.327l25.682,25.683h36.328l25.682-25.683v-36.327Zm-33.961,33.286V6305.1a6.6,6.6,0,0,1-2.033,5.146,6.2,6.2,0,0,1-4.135,1.58,6.357,6.357,0,0,1-4.3-1.624,6.547,6.547,0,0,1-2.119-5.1v-14.687h2.918V6305.1a3.308,3.308,0,0,0,3.426,3.635,3.2,3.2,0,0,0,2.264-.874,3.848,3.848,0,0,0,1.074-2.761v-14.687Zm-13.633,6.323a8.708,8.708,0,0,1-1.152,4.469,3.985,3.985,0,0,1-3.488,2.359h-4.187v7.917h-2.93v-21.068h7.117a4.185,4.185,0,0,1,3.463,2.026A7.827,7.827,0,0,1,16263.889,6296.739Zm14.68-6.323h3.178v17.865h7.717v3.2h-10.895Zm22.377.374a8.83,8.83,0,0,1,2.9,2.188l-2.023,2.281-1.26-1.162a3.94,3.94,0,0,0-2.715-.863,3.1,3.1,0,0,0-2.246.99,2.908,2.908,0,0,0-.979,2.031l.068.529.18.461a3.106,3.106,0,0,0,.752.834l4.355,1.608a13.555,13.555,0,0,1,2.738,1.565,4.981,4.981,0,0,1,1.309,3.768,6.712,6.712,0,0,1-1.986,4.8,5.625,5.625,0,0,1-4.191,1.981,8.207,8.207,0,0,1-3.869-.946,17.6,17.6,0,0,1-3.465-2.644l2.117-2.315,2.262,1.942a5.982,5.982,0,0,0,2.922.617,2.246,2.246,0,0,0,1.92-.926,3.576,3.576,0,0,0,.684-2.178,3.18,3.18,0,0,0-.34-1.481,1.87,1.87,0,0,0-.959-.917l-3.43-1.064a7.9,7.9,0,0,1-2.842-1.741,5.546,5.546,0,0,1-1.273-3.807,5.929,5.929,0,0,1,1.85-4.39,5.59,5.59,0,0,1,3.947-1.82A8.785,8.785,0,0,1,16300.945,6290.789Zm4.123,20.695,5.762-21.068h3.5l5.621,21.068h-3.32l-1.072-4.184h-5.867l-1.086,4.184Zm15.928-.015v-21.054h6.7a4.07,4.07,0,0,1,3.393,2.026,7.784,7.784,0,0,1,1.145,4.252,6.25,6.25,0,0,1-.791,3.316,5.288,5.288,0,0,1-1.879,1.889,8.751,8.751,0,0,1,.865,1.172c.2.339.51.961.924,1.874l1.2,2.918a12.932,12.932,0,0,0,1.189,2.527l.762,1.093h-3.525l-2.512-5.778a6,6,0,0,0-1.189-1.967,2.236,2.236,0,0,0-1.641-.76h-2.061v8.505Z" transform="translate(-16245.486 -6253.144)"/><path class="a" d="M15028.039,5008.458h38.525l27.241,27.241v38.525l-27.241,27.242h-38.525l-27.24-27.242V5035.7Zm-28.57,26.691v39.627l28.021,28.02h39.625l28.02-28.02v-39.627l-28.02-28.02h-39.625Z" transform="translate(-14999.469 -5007.13)"/><path class="b" d="M16249.473,6319.141v-36.327l25.682-25.684h36.328l25.682,25.684v36.327l-25.682,25.683h-36.328Z" transform="translate(-16245.486 -6253.144)"/><path class="c" d="M17094.563,16611.264a8.693,8.693,0,0,1-1.152,4.471,3.983,3.983,0,0,1-3.488,2.357h-4.189v7.916h-2.93v-21.066h7.119a4.176,4.176,0,0,1,3.461,2.025A7.776,7.776,0,0,1,17094.563,16611.264Zm-2.926.172a5.075,5.075,0,0,0-.488-2.287,2.253,2.253,0,0,0-2.059-1.088h-3.357v6.867h3.357a2.185,2.185,0,0,0,1.914-1.176A4.17,4.17,0,0,0,17091.637,16611.436Zm10.387,14.918a6.364,6.364,0,0,1-4.3-1.625,6.558,6.558,0,0,1-2.115-5.1v-14.686h2.916v14.686a3.309,3.309,0,0,0,3.426,3.637,3.2,3.2,0,0,0,2.262-.873,3.837,3.837,0,0,0,1.074-2.764v-14.686h2.906v14.686a6.577,6.577,0,0,1-2.037,5.145A6.184,6.184,0,0,1,17102.023,16626.354Zm10.4-21.412h-3.18v21.066h10.895v-3.2h-7.715Zm10.879,15.479,2.264,1.939a5.972,5.972,0,0,0,2.916.619,2.246,2.246,0,0,0,1.922-.928,3.566,3.566,0,0,0,.688-2.178,3.21,3.21,0,0,0-.34-1.482,1.874,1.874,0,0,0-.961-.918l-3.43-1.062a7.909,7.909,0,0,1-2.84-1.742,5.544,5.544,0,0,1-1.273-3.807,5.926,5.926,0,0,1,1.848-4.387,5.581,5.581,0,0,1,3.945-1.82,7.912,7.912,0,0,1,6.477,2.848l-2.023,2.281-1.258-1.162a3.949,3.949,0,0,0-2.715-.863,3.113,3.113,0,0,0-2.25.99,2.923,2.923,0,0,0-.979,2.029l.07.533.178.459a3.135,3.135,0,0,0,.754.834l4.355,1.607a13.549,13.549,0,0,1,2.738,1.568,4.973,4.973,0,0,1,1.311,3.764,6.718,6.718,0,0,1-1.99,4.8,5.616,5.616,0,0,1-4.187,1.982,8.228,8.228,0,0,1-3.871-.947,17.78,17.78,0,0,1-3.465-2.645Zm19.969-10.621-2.2,8.867h4.473Zm-1.766-4.857h3.5l5.619,21.066h-3.32l-1.07-4.184h-5.871l-1.084,4.184h-3.535Zm23.678,21.066h-3.521l-2.512-5.775a5.993,5.993,0,0,0-1.191-1.967,2.233,2.233,0,0,0-1.643-.762h-2.061v8.5l-2.584-.014v-21.053h6.7a4.069,4.069,0,0,1,3.395,2.025,7.786,7.786,0,0,1,1.145,4.254,6.2,6.2,0,0,1-.793,3.314,5.214,5.214,0,0,1-1.875,1.889,9.444,9.444,0,0,1,.865,1.174c.2.338.506.961.92,1.873l1.2,2.92a13.048,13.048,0,0,0,1.191,2.525Zm-5.307-14.611a5.345,5.345,0,0,0-.383-2.113,1.99,1.99,0,0,0-1.918-1.051h-3.32v6.2h3.32a2.543,2.543,0,0,0,1.813-1.107A3.746,3.746,0,0,0,17159.875,16611.4Z" transform="translate(-17076.162 -16567.672)"/><path class="a" d="M18006.986,17674.781a2.253,2.253,0,0,0-2.061-1.09h-3.355v6.867h3.355a2.177,2.177,0,0,0,1.914-1.178,4.159,4.159,0,0,0,.633-2.314A5.06,5.06,0,0,0,18006.986,17674.781Z" transform="translate(-17991.998 -17633.301)"/><path class="a" d="M35355.723,18218.221l-2.2,8.869H35358Z" transform="translate(-35288.621 -18176.092)"/><path class="a" d="M39489.535,17727.531v6.2h3.316a2.517,2.517,0,0,0,1.809-1.109,3.632,3.632,0,0,0,.492-1.924,5.28,5.28,0,0,0-.383-2.115,1.985,1.985,0,0,0-1.918-1.047Z" transform="translate(-39411.441 -17686.967)"/></svg>