<svg xmlns="http://www.w3.org/2000/svg" width="120.999" height="96" viewBox="0 0 120.999 96">
    <defs>
        <style>
            .second-a,.second-c{fill:none;}.second-b{fill:#dddd8b;}.second-c,.second-d{stroke:#dddd8b;stroke-width:3px;}.second-d{fill:rgba(0,0,0,0);stroke-linecap:round;stroke-linejoin:round;}.second-e,.second-f{stroke:none;}.second-f{fill:#dddd8b;}
        </style>
    </defs>
    <g transform="translate(-367.5 -11772.5)">
        <g class="second-a" transform="translate(640.572 4731.612)">
            <path class="second-e" d="M-237.76,7059.507l5.561-7.715,29.241,32.268-3.479,6.317-9.621-5.664Z"/>
            <path class="second-f"
                  d="M -231.9324645996094 7056.55322265625 L -233.9427490234375 7059.34228515625 L -214.1083831787109 7082.37939453125 L -207.5756225585938 7086.2255859375 L -206.6184387207031 7084.48779296875 L -231.9324645996094 7056.55322265625 M -232.1985626220703 7051.7919921875 L -202.957763671875 7084.0595703125 L -206.4372406005859 7090.376953125 L -216.0580596923828 7084.712890625 L -237.7596435546875 7059.5068359375 L -232.1985626220703 7051.7919921875 Z"/>
        </g>
        <g class="second-a" transform="translate(693.809 4658.608)">
            <path class="second-e"
                  d="M-292.629,7136.426l16.529,18.886.4,4.639L-293.955,7173l-5.754,9.824-1.543-1.984,3.522-18.946Z"/>
            <path class="second-f"
                  d="M -290.881591796875 7142.97705078125 L -294.7848510742188 7162.4580078125 L -296.4237365722656 7171.27392578125 L -296.22021484375 7170.92626953125 L -295.6991577148438 7170.55419921875 L -278.8323669433594 7158.50439453125 L -279.0027770996094 7156.54931640625 L -290.881591796875 7142.97705078125 M -292.6286010742188 7136.42578125 L -276.0992736816406 7155.3115234375 L -275.6950073242188 7159.9501953125 L -293.9552612304688 7172.9951171875 L -299.709716796875 7182.8193359375 L -301.2525634765625 7180.8349609375 L -297.73046875 7161.888671875 L -292.6286010742188 7136.42578125 Z"/>
        </g>
        <path class="second-b" d="M-267.525,7339.032l24.363,7.043L-244.2,7318.2l-1.744-.982-17.2,13.4Z"
              transform="translate(664.644 4505.002)"/>
        <path class="second-b" d="M-32.249,7333.452l.662,29.94,13.1,3.874-3.754-10.134-2.454-16.862Z"
              transform="translate(457.171 4488.353)"/>
        <g class="second-a" transform="translate(382.616 4399.23)">
            <path class="second-e"
                  d="M60.455,7433.708l2.459,11.634,3.7,9.032,2.488,2.864,8.787,1.916,1.967-8.99-7.67-4.822-5.571-6.257-2.883-4.79Z"/>
            <path class="second-f"
                  d="M 65.29993438720703 7442.11962890625 L 65.79381561279297 7444.45556640625 L 69.20352172851562 7452.77978515625 L 70.71453857421875 7454.51953125 L 75.59926605224609 7455.58447265625 L 76.47477722167969 7451.58203125 L 70.22874450683594 7447.65478515625 L 65.29993438720703 7442.11962890625 M 60.455322265625 7433.7080078125 L 63.73129272460938 7434.294921875 L 66.61466217041016 7439.0849609375 L 72.18605041503906 7445.341796875 L 79.85586547851562 7450.1640625 L 77.88931274414062 7459.154296875 L 69.10257720947266 7457.23828125 L 66.61466217041016 7454.3740234375 L 62.91481018066406 7445.341796875 L 60.455322265625 7433.7080078125 Z"/>
        </g>
        <path class="second-c"
              d="M-570.052,12695.463a247.159,247.159,0,0,0,29.1,30.166c16.011,13.657,26.962,16.348,26.962,16.348"
              transform="translate(984.091 -916.209)"/>
        <path class="second-c" d="M491.8,13098.932s4.386,8.659,5.418,17.1-5.718,2.8-4.583,13.562,6.4,21.084,6.4,21.084"
              transform="translate(-54.242 -1294.494)"/>
        <path class="second-d"
              d="M110.339,85.308v0Zm-96.678,0v0Zm96.678,0h0ZM13.661,85.308ZM3,85.308H3ZM13.661,85.308Zm96.678-71.617h0Zm0-10.692V3ZM3,13.692H3ZM13.661,3V3Z"
              transform="translate(365.999 11771)"/>
    </g>
</svg>