<svg xmlns="http://www.w3.org/2000/svg" width="28.416" height="28.416" viewBox="0 0 28.416 28.416"><defs><style>.a{fill:#fff;}</style></defs><g transform="translate(-0.001 0.001)"><path class="a" d="M-741.376-13672.479a14.113,14.113,0,0,1-10.046-4.161,14.116,14.116,0,0,1-4.161-10.047,14.116,14.116,0,0,1,4.161-10.047,14.113,14.113,0,0,1,10.046-4.161,14.113,14.113,0,0,1,10.046,4.161,14.116,14.116,0,0,1,4.161,10.047,14.116,14.116,0,0,1-4.161,10.047A14.113,14.113,0,0,1-741.376-13672.479Zm2.34-16.416a.218.218,0,0,1,.149.049.293.293,0,0,1,.065.254,39.542,39.542,0,0,1-3.312,3.259l-.1.091c-.284.265-.489.455-.534.5-.115.119-.231.231-.334.331-.4.383-.74.713-.706,1.081.026.278.259.554.734.867.54.355.984.657,1.414.949l.108.073c.478.326,1,.682,1.673,1.123.156.1.305.207.45.311l.043.03a2.951,2.951,0,0,0,1.635.742,1.37,1.37,0,0,0,.138-.007c.327-.032.762-.313.977-1.468.441-2.355,1.4-7.974,1.623-10.288a2.712,2.712,0,0,0-.024-.563.619.619,0,0,0-.2-.389.92.92,0,0,0-.537-.165h-.02c-.527.01-1.291.267-5.337,1.949-1.375.571-4.027,1.713-8.345,3.594-.687.275-1.035.533-1.066.79-.055.437.488.607,1.238.844l.309.1a10.613,10.613,0,0,0,2.225.526h.034a2.779,2.779,0,0,0,1.517-.574c3.937-2.656,5.912-3.961,6.038-3.989A.649.649,0,0,1-739.036-13688.9Z" transform="translate(755.585 13700.895)"/></g></svg>