<svg xmlns="http://www.w3.org/2000/svg" width="35.43" height="28.787" viewBox="0 0 35.43 28.787"><defs><style>.a{fill:#fff;}</style></defs><g transform="translate(0 0)"><path class="a" d="M35.43,51.408a15.144,15.144,0,0,1-4.185,1.147,7.223,7.223,0,0,0,3.2-4.015A14.516,14.516,0,0,1,29.834,50.3,7.263,7.263,0,0,0,17.27,55.265a7.479,7.479,0,0,0,.168,1.656,20.56,20.56,0,0,1-14.971-7.6A7.265,7.265,0,0,0,4.7,59.032a7.173,7.173,0,0,1-3.282-.895v.08a7.3,7.3,0,0,0,5.819,7.137,7.249,7.249,0,0,1-1.9.239,6.423,6.423,0,0,1-1.375-.124,7.333,7.333,0,0,0,6.787,5.06,14.6,14.6,0,0,1-9.006,3.1A13.6,13.6,0,0,1,0,73.527a20.449,20.449,0,0,0,11.143,3.26c13.366,0,20.674-11.072,20.674-20.669,0-.321-.011-.631-.027-.939A14.49,14.49,0,0,0,35.43,51.408Z" transform="translate(0 -48)"/></g></svg>