<svg xmlns="http://www.w3.org/2000/svg" width="33.36" height="20.85" viewBox="0 0 33.36 20.85"><defs><style>.a{fill:#fff;}</style></defs><path class="a" d="M16.881,25.349c4.826,0,3.105-3.055,3.478-3.934-.006-.656-.011-1.287.011-1.671a7.407,7.407,0,0,1,2.517,1.9c2.3,2.321,2.888,3.7,4.747,3.7h3.421a2.258,2.258,0,0,0,1.931-.826,2.159,2.159,0,0,0,.247-2c-.763-2.4-5.214-6.534-5.49-6.971.042-.081.108-.188.143-.243h0c.878-1.161,4.231-6.184,4.725-8.194a.026.026,0,0,0,0-.011,2,2,0,0,0-.231-1.849A2.125,2.125,0,0,0,30.574,4.5H27.153A2.519,2.519,0,0,0,24.7,6.129C23.965,8,21.9,11.843,20.351,13.2c-.047-1.928-.015-3.4.01-4.494.05-2.134.211-4.21-2-4.21H12.981c-1.387,0-2.715,1.515-1.277,3.314,1.257,1.576.452,2.455.723,6.827a25.577,25.577,0,0,1-4.264-8.1A2.5,2.5,0,0,0,5.636,4.5H2.216A1.953,1.953,0,0,0,0,6.524C0,9.368,6.3,25.349,16.881,25.349Z" transform="translate(0 -4.5)"/></svg>