<svg width="30" height="30" viewBox="0 0 30 30" fill="none" xmlns="http://www.w3.org/2000/svg">
<path d="M16.9805 11.7012H8.8125C8.15039 11.7012 7.61719 12.2344 7.61719 12.8965C7.61719 13.5586 8.15039 14.0918 8.8125 14.0918H16.9805C17.6426 14.0918 18.1758 13.5586 18.1758 12.8965C18.1758 12.2344 17.6367 11.7012 16.9805 11.7012Z" fill="white"/>
<path d="M12.9023 22.7461C7.45898 22.7461 3.04688 18.3398 3.04688 12.8965C3.04688 7.45898 7.45898 3.04688 12.9023 3.04688C18.3457 3.04688 22.752 7.45898 22.752 12.8965C22.752 18.3398 18.3398 22.7461 12.9023 22.7461ZM29.0039 27.3105L22.3652 20.6777C24.1055 18.5625 25.1543 15.8496 25.1543 12.8965C25.1543 6.12891 19.6699 0.644531 12.9023 0.644531C6.13477 0.644531 0.644531 6.12891 0.644531 12.8965C0.644531 19.6641 6.12891 25.1484 12.9023 25.1484C15.8555 25.1484 18.5625 24.1055 20.6777 22.3652L27.3105 29.0039C27.7793 29.4727 28.5352 29.4727 29.0039 29.0039C29.4727 28.5352 29.4727 27.7793 29.0039 27.3105Z" fill="white"/>
</svg>
