<svg width="31" height="31" viewBox="0 0 31 31" fill="none" xmlns="http://www.w3.org/2000/svg">
<path d="M17.8209 12.4337H14.8026V9.3905C14.8026 8.69296 14.2455 8.13123 13.5537 8.13123C12.8618 8.13123 12.3047 8.69296 12.3047 9.3905V12.4337H9.28642C8.5946 12.4337 8.03748 12.9955 8.03748 13.693C8.03748 14.3906 8.5946 14.9523 9.28642 14.9523H12.3047V17.9955C12.3047 18.6931 12.8618 19.2548 13.5537 19.2548C14.2455 19.2548 14.8026 18.6931 14.8026 17.9955V14.9523H17.8209C18.5127 14.9523 19.0698 14.3906 19.0698 13.693C19.0698 12.9955 18.5066 12.4337 17.8209 12.4337Z" fill="white"/>
<path d="M13.5598 24.0697C7.87218 24.0697 3.26209 19.4277 3.26209 13.693C3.26209 7.95839 7.87218 3.31636 13.5598 3.31636C19.2474 3.31636 23.8514 7.96457 23.8514 13.693C23.8514 19.4215 19.2413 24.0697 13.5598 24.0697ZM30.3838 28.8846L23.4473 21.8907C25.2656 19.6622 26.3615 16.8042 26.3615 13.693C26.3615 6.56332 20.631 0.779297 13.5537 0.779297C6.4763 0.779297 0.751953 6.56332 0.751953 13.693C0.751953 20.8227 6.48242 26.6068 13.5598 26.6068C16.6454 26.6068 19.4739 25.508 21.6841 23.6746L28.6206 30.6685C28.939 30.9957 29.9124 31.1562 30.39 30.6685C30.8736 30.1747 30.8736 29.3784 30.3838 28.8846Z" fill="white"/>
</svg>
